<svg width="45" height="29" viewBox="0 0 45 29" fill="none" xmlns="http://www.w3.org/2000/svg">
<g clip-path="url(#clip0_21_36)">
<path d="M5.25 4.09835L5.25 24.7541C5.25 25.2246 4.91 25.6147 4.5 25.6147C4.09 25.6147 3.75 25.2246 3.75 24.7541L3.75 4.09835C3.75 3.62786 4.09 3.2377 4.5 3.2377C4.91 3.2377 5.25 3.62786 5.25 4.09835ZM10.25 13.8869V24.7541C10.25 25.2246 9.91 25.6147 9.5 25.6147C9.09 25.6147 8.75 25.2246 8.75 24.7541V13.8869C8.75 13.6586 8.82902 13.4397 8.96967 13.2783C9.11032 13.1169 9.30109 13.0262 9.5 13.0262C9.69891 13.0262 9.88968 13.1169 10.0303 13.2783C10.171 13.4397 10.25 13.6586 10.25 13.8869V13.8869ZM15.25 4.09835L15.25 24.7541C15.25 25.2246 14.91 25.6147 14.5 25.6147C14.09 25.6147 13.75 25.2246 13.75 24.7541L13.75 4.09835C13.75 3.62786 14.09 3.2377 14.5 3.2377C14.91 3.2377 15.25 3.62786 15.25 4.09835ZM20.25 13.8869V24.7541C20.25 25.2246 19.91 25.6147 19.5 25.6147C19.09 25.6147 18.75 25.2246 18.75 24.7541V13.8869C18.75 13.6586 18.829 13.4397 18.9697 13.2783C19.1103 13.1169 19.3011 13.0262 19.5 13.0262C19.6989 13.0262 19.8897 13.1169 20.0303 13.2783C20.171 13.4397 20.25 13.6586 20.25 13.8869V13.8869Z" fill="black"/>
</g>
<g clip-path="url(#clip1_21_36)">
<path d="M39.75 24.7542L39.75 14.4264C39.75 13.9559 40.09 13.5657 40.5 13.5657C40.91 13.5657 41.25 13.9559 41.25 14.4264L41.25 24.7542C41.25 25.2247 40.91 25.6149 40.5 25.6149C40.09 25.6149 39.75 25.2247 39.75 24.7542ZM34.75 24.7542V14.4264C34.75 13.9559 35.09 13.5657 35.5 13.5657C35.91 13.5657 36.25 13.9559 36.25 14.4264V24.7542C36.25 25.2247 35.91 25.6149 35.5 25.6149C35.09 25.6149 34.75 25.2247 34.75 24.7542ZM29.75 24.7542L29.75 4.09851C29.75 3.62802 30.09 3.23785 30.5 3.23785C30.91 3.23785 31.25 3.62802 31.25 4.09851L31.25 24.7542C31.25 25.2247 30.91 25.6149 30.5 25.6149C30.09 25.6149 29.75 25.2247 29.75 24.7542ZM24.75 24.7542L24.75 4.09851C24.75 3.62802 25.09 3.23785 25.5 3.23785C25.91 3.23785 26.25 3.62802 26.25 4.09851L26.25 24.7542C26.25 25.2247 25.91 25.6149 25.5 25.6149C25.09 25.6149 24.75 25.2247 24.75 24.7542Z" fill="black"/>
</g>
<defs>
<clipPath id="clip0_21_36">
<rect width="27.541" height="24" fill="white" transform="matrix(0 -1 1 0 0 28.1967)"/>
</clipPath>
<clipPath id="clip1_21_36">
<rect width="27.541" height="24" fill="white" transform="matrix(0 1 -1 0 45 0.655884)"/>
</clipPath>
</defs>
</svg>
