<svg width="35" height="42" viewBox="0 0 35 42" fill="none" xmlns="http://www.w3.org/2000/svg">
<path d="M30.4646 9.58501V28.4955C30.4646 31.8091 28.1167 34.5034 25.2292 34.5034C23.8418 34.499 22.5124 33.8646 21.5314 32.7388C20.5504 31.6131 19.9976 30.0876 19.9937 28.4955C19.9937 25.1987 22.3562 22.5044 25.2292 22.5044C26.4542 22.5044 27.5479 22.9897 28.4375 23.793V13.8357L15.0062 18.2203V31.7254C15.0024 33.3174 14.4496 34.843 13.4686 35.9687C12.4876 37.0944 11.1582 37.7288 9.77082 37.7332C6.88332 37.7332 4.5354 35.0389 4.5354 31.7254C4.5354 28.4286 6.88332 25.7343 9.77082 25.7343C10.9812 25.7343 12.075 26.2196 12.9646 27.0061V12.2124C12.9646 9.75236 14.2625 7.84457 16.3187 7.20864L24.7479 4.56452C26.4542 4.029 27.8979 4.21309 28.9187 5.11677C29.9542 6.00373 30.4646 7.50987 30.4646 9.58501V9.58501Z" fill="black"/>
</svg>
